HIERARCHY
ROOT Hips
{
	OFFSET 0.00 0.00 0.00
	CHANNELS 6 Xposition Yposition Zposition Xrotation Yrotation Zrotation
	JOINT Spine
	{
		OFFSET 0.00000 1.70439 2.55658
		CHANNELS 3 Xrotation Yrotation Zrotation
		JOINT Spine1
		{
			OFFSET 0.00000 0.59193 3.35699
			CHANNELS 3 Xrotation Yrotation Zrotation
			JOINT Spine2
			{
				OFFSET 0.00000 0.29710 3.39581
				CHANNELS 3 Xrotation Yrotation Zrotation
				JOINT Spine3
				{
					OFFSET 0.00000 0.00000 3.40878
					CHANNELS 3 Xrotation Yrotation Zrotation
					JOINT Neck
					{
						OFFSET 0.00000 -1.27828 8.94804
						CHANNELS 3 Xrotation Yrotation Zrotation
						JOINT Head
						{
							OFFSET 0.00000 -0.81390 4.61586
							CHANNELS 3 Xrotation Yrotation Zrotation
							End Site
							{
								OFFSET 0.00000 0.00001 5.51796
							}
						}
					}
					JOINT RightShoulder
					{
						OFFSET -1.18875 -1.98124 6.41925
						CHANNELS 3 Xrotation Yrotation Zrotation
						JOINT RightArm
						{
							OFFSET -5.90412 0.00000 0.00000
							CHANNELS 3 Xrotation Yrotation Zrotation
							JOINT RightForeArm
							{
								OFFSET -11.94674 0.00000 0.00000
								CHANNELS 3 Xrotation Yrotation Zrotation
								JOINT RightHand
								{
									OFFSET -10.17720 0.00000 0.00000
									CHANNELS 3 Xrotation Yrotation Zrotation
									JOINT RightHandEnd
									{
										OFFSET -2.84518 0.00000 0.00000
										CHANNELS 3 Xrotation Yrotation Zrotation
										End Site
										{
											OFFSET -2.84518 0.00000 0.00000
										}
									}
									JOINT RightHandThumb1
									{
										OFFSET -1.13807 -1.89679 -0.75871
										CHANNELS 3 Yrotation Xrotation Zrotation
										End Site
										{
											OFFSET -2.74823 -0.73639 0.00000
										}
									}
								}
							}
						}
					}
					JOINT LeftShoulder
					{
						OFFSET 1.18875 -1.98124 6.41925
						CHANNELS 3 Xrotation Yrotation Zrotation
						JOINT LeftArm
						{
							OFFSET 5.90412 0.00000 0.00000
							CHANNELS 3 Xrotation Yrotation Zrotation
							JOINT LeftForeArm
							{
								OFFSET 11.94674 0.00000 0.00000
								CHANNELS 3 Xrotation Yrotation Zrotation
								JOINT LeftHand
								{
									OFFSET 10.17720 0.00000 0.00000
									CHANNELS 3 Xrotation Yrotation Zrotation
									JOINT LeftHandEnd
									{
										OFFSET 2.84518 0.00000 0.00000
										CHANNELS 3 Xrotation Yrotation Zrotation
										End Site
										{
											OFFSET 2.84518 0.00000 0.00000
										}
									}
									JOINT LeftHandThumb1
									{
										OFFSET 1.13807 -1.89679 -0.75871
										CHANNELS 3 Yrotation Xrotation Zrotation
										End Site
										{
											OFFSET 2.74823 -0.73639 0.00000
										}
									}
								}
							}
						}
					}
				}
			}
		}
	}
	JOINT RightUpLeg
	{
		OFFSET -3.52662 0.00000 -1.03025
		CHANNELS 3 Xrotation Yrotation Zrotation
		JOINT RightLeg
		{
			OFFSET 0.00001 0.00000 -17.80159
			CHANNELS 3 Xrotation Yrotation Zrotation
			JOINT RightFoot
			{
				OFFSET 0.00001 0.00000 -16.85992
				CHANNELS 3 Xrotation Yrotation Zrotation
				JOINT RightToeBase
				{
					OFFSET 0.00000 -5.42953 -1.97619
					CHANNELS 3 Xrotation Yrotation Zrotation
					End Site
					{
						OFFSET 0.00000 -2.85300 -0.00000
					}
				}
			}
		}
	}
	JOINT LeftUpLeg
	{
		OFFSET 3.52662 0.00000 -1.03025
		CHANNELS 3 Xrotation Yrotation Zrotation
		JOINT LeftLeg
		{
			OFFSET 0.00001 0.00000 -17.80159
			CHANNELS 3 Xrotation Yrotation Zrotation
			JOINT LeftFoot
			{
				OFFSET 0.00001 0.00000 -16.85992
				CHANNELS 3 Xrotation Yrotation Zrotation
				JOINT LeftToeBase
				{
					OFFSET 0.00000 -5.42953 -1.97619
					CHANNELS 3 Xrotation Yrotation Zrotation
					End Site
					{
						OFFSET 0.00000 -2.85300 -0.00000
					}
				}
			}
		}
	}
}
MOTION
Frames: 15
Frame Time:	0.0333333
 2.4383 -16.0625 37.9259 4.7264 1.4952 -177.8398 1.3731 -0.2773 -0.5406 0.7157 -0.0743 -0.1649 -0.7339 -1.7527 -1.2573 -0.4875 0.3409 0.0305 1.9834 -1.1147 -1.3148 -0.3331 1.8023 0.2551 -3.4084 5.1452 0.3052 -3.5626 6.4125 -0.4757 0.0000 0.0000 10.6044 -2.0589 17.5920 -3.3590 0.0000 0.0000 0.0000 -0.0000 -0.0000 -0.0000 -1.3817 -2.4391 -2.5748 -14.4314 6.9280 7.2226 -0.0000 -0.0000 -15.7144 -8.9904 -13.7183 6.5877 -0.0000 -0.0000 0.0000 0.0000 -0.0000 0.0000 3.4472 9.0933 -29.9739 13.4505 0.0000 0.0000 -11.2708 -6.7946 -2.2070 2.2593 0.0000 0.0000 4.8035 -3.3380 10.3629 10.1196 0.0000 0.0000 -8.4946 13.9331 7.2938 -6.0036 0.0000 -0.0000
 2.4721 -16.0148 37.9267 4.8339 1.3712 -177.9893 1.4109 -0.2534 -0.5377 0.7401 -0.0502 -0.1569 -0.7771 -1.7827 -1.2300 -0.5174 0.3283 0.0502 1.7826 -1.2951 -1.3289 -0.2626 1.8412 0.3374 -3.4645 5.1539 0.3678 -3.2219 6.5605 -0.4255 0.0000 0.0000 10.5273 -2.0300 17.8540 -3.2461 -0.0000 0.0000 -0.0000 -0.0000 -0.0000 0.0000 -1.7389 -2.5573 -2.6504 -14.3297 6.5616 7.1076 -0.0000 -0.0000 -15.4182 -8.9405 -13.4613 6.5369 0.0000 -0.0000 -0.0000 0.0000 -0.0000 0.0000 3.6917 8.9078 -30.1717 13.2550 0.0000 0.0000 -11.1598 -6.8931 -1.8888 2.1911 0.0000 0.0000 4.9970 -3.4939 10.4026 10.1381 0.0000 0.0000 -8.6128 13.8955 7.4657 -6.0077 0.0000 -0.0000
 2.5265 -15.9440 37.9272 4.9879 1.2120 -178.3345 1.4680 -0.2107 -0.5249 0.7729 -0.0410 -0.1454 -0.8353 -1.7805 -1.0931 -0.5557 0.3157 0.0802 1.5118 -1.5167 -1.3016 -0.2162 1.8542 0.4426 -3.4631 5.2034 0.5161 -2.6624 6.6964 -0.3928 0.0000 0.0000 10.3943 -1.9968 17.9290 -3.0435 -0.0000 0.0000 -0.0000 0.0000 -0.0000 0.0000 -2.2392 -2.7230 -2.7268 -14.2966 6.0457 6.9532 -0.0000 -0.0000 -14.9804 -9.0175 -13.1831 6.4112 0.0000 0.0000 -0.0000 -0.0000 -0.0000 0.0000 3.9132 8.7100 -30.2052 13.1885 0.0000 0.0000 -11.0608 -7.0708 -1.5472 2.0274 0.0000 0.0000 5.3372 -3.6955 10.6343 10.0922 0.0000 0.0000 -8.7351 13.9151 7.6573 -6.0077 0.0000 -0.0000
 2.5854 -15.8823 37.9267 5.0871 1.0696 -178.7646 1.4961 -0.1891 -0.5053 0.7945 -0.0526 -0.1386 -0.8768 -1.7224 -0.8815 -0.5805 0.3144 0.0996 1.3056 -1.6509 -1.2195 -0.2390 1.8213 0.5131 -3.4074 5.2710 0.7274 -2.1761 6.6941 -0.3812 0.0000 0.0000 10.2383 -1.9868 17.7007 -2.8911 -0.0000 0.0000 0.0000 -0.0000 -0.0000 -0.0000 -2.6747 -2.8716 -2.7312 -14.4090 5.6144 6.8417 -0.0000 -0.0000 -14.6050 -9.2338 -13.1073 6.2413 0.0000 -0.0000 -0.0000 0.0000 0.0000 0.0000 3.9778 8.5322 -29.9173 13.2401 0.0000 0.0000 -11.0386 -7.1679 -1.4452 1.8625 0.0000 0.0000 5.6395 -3.8699 10.9526 10.0103 0.0000 0.0000 -8.8266 13.9631 7.8500 -6.0091 0.0000 -0.0000
 2.6412 -15.8441 37.9275 5.1059 0.9241 -179.1025 1.5002 -0.2185 -0.4915 0.8025 -0.0690 -0.1336 -0.8963 -1.6495 -0.7194 -0.5916 0.3188 0.1046 1.1918 -1.6569 -1.1178 -0.2892 1.7686 0.5209 -3.3482 5.3250 0.9362 -1.9002 6.5661 -0.3550 0.0000 0.0000 10.0870 -2.0116 17.3893 -2.8788 -0.0000 0.0000 -0.0000 -0.0000 -0.0000 -0.0000 -2.9908 -2.9865 -2.6588 -14.5801 5.3647 6.7936 -0.0000 -0.0000 -14.3693 -9.4821 -13.2579 6.0763 -0.0000 0.0000 0.0000 0.0000 -0.0000 -0.0000 4.0058 8.2894 -29.6007 13.1420 0.0000 0.0000 -11.0089 -7.1258 -1.4645 1.7773 0.0000 0.0000 5.7769 -4.0444 11.1540 9.9928 0.0000 0.0000 -8.9240 13.9482 8.0835 -6.0124 0.0000 -0.0000
 2.6946 -15.8204 37.9316 5.0845 0.7378 -179.2998 1.5114 -0.2862 -0.4818 0.8050 -0.0814 -0.1313 -0.9075 -1.6182 -0.6417 -0.5982 0.3166 0.1022 1.1078 -1.5781 -1.0317 -0.3164 1.7138 0.4815 -3.2929 5.3695 1.0903 -1.7148 6.4236 -0.3045 0.0000 0.0000 9.9532 -2.0712 17.1574 -2.9259 0.0000 0.0000 0.0000 0.0000 -0.0000 -0.0000 -3.2433 -3.0879 -2.5611 -14.6544 5.2390 6.7538 -0.0000 -0.0000 -14.1935 -9.6228 -13.4474 5.9556 -0.0000 -0.0000 0.0000 -0.0000 -0.0000 0.0000 4.1440 7.9503 -29.6455 12.7599 0.0000 0.0000 -10.8533 -7.0782 -1.2471 1.7537 0.0000 0.0000 5.7839 -4.2750 11.2515 10.0678 0.0000 0.0000 -9.0378 13.8689 8.3017 -6.0004 0.0000 -0.0000
 2.7430 -15.8045 37.9367 5.0241 0.5440 -179.4563 1.5077 -0.3505 -0.4639 0.7974 -0.1057 -0.1295 -0.8937 -1.6231 -0.5655 -0.5982 0.3072 0.1116 1.0259 -1.4691 -0.9662 -0.3430 1.6544 0.4324 -3.2109 5.4345 1.1769 -1.5285 6.3204 -0.2632 0.0000 0.0000 9.8491 -2.1587 16.9244 -2.9281 -0.0000 0.0000 -0.0000 0.0000 -0.0000 0.0000 -3.4297 -3.1829 -2.4814 -14.5883 5.1841 6.6932 -0.0000 -0.0000 -14.0341 -9.5876 -13.5334 5.8870 -0.0000 -0.0000 -0.0000 -0.0000 -0.0000 0.0000 4.2848 7.6314 -29.9862 12.3189 0.0000 0.0000 -10.6186 -7.1428 -0.7420 1.7435 0.0000 0.0000 5.7260 -4.5236 11.4433 10.1624 0.0000 0.0000 -9.1208 13.8164 8.3837 -5.9569 0.0000 -0.0000
 2.7801 -15.8016 37.9381 4.9003 0.4120 -179.6482 1.4551 -0.3858 -0.4385 0.7787 -0.1417 -0.1203 -0.8289 -1.6211 -0.4345 -0.5862 0.2966 0.1417 0.9598 -1.3798 -0.9114 -0.3948 1.6059 0.4029 -3.1139 5.5202 1.2166 -1.4149 6.2355 -0.2493 0.0000 0.0000 9.7729 -2.2507 16.6329 -2.9221 0.0000 -0.0000 0.0000 0.0000 -0.0000 0.0000 -3.5168 -3.2501 -2.3919 -14.4431 5.1878 6.6023 -0.0000 -0.0000 -13.9369 -9.4274 -13.5678 5.8199 0.0000 -0.0000 -0.0000 -0.0000 0.0000 0.0000 4.2218 7.4574 -30.1980 12.1322 0.0000 0.0000 -10.4801 -7.2485 -0.3072 1.7343 0.0000 0.0000 5.6020 -4.6982 11.7581 10.2332 0.0000 0.0000 -9.1671 13.8149 8.3598 -5.8863 0.0000 -0.0000
 2.8050 -15.8121 37.9346 4.7944 0.3609 -179.8237 1.4358 -0.3840 -0.4203 0.7690 -0.1829 -0.1205 -0.7249 -1.5869 -0.2689 -0.5703 0.2951 0.1660 0.8964 -1.3568 -0.8765 -0.4227 1.5830 0.3949 -3.0506 5.6046 1.2304 -1.4336 6.1354 -0.2419 0.0000 0.0000 9.7102 -2.3307 16.3973 -2.9875 0.0000 0.0000 -0.0000 -0.0000 0.0000 0.0000 -3.5408 -3.2996 -2.2491 -14.2849 5.2316 6.4603 -0.0000 -0.0000 -13.9234 -9.2917 -13.6800 5.6742 -0.0000 0.0000 -0.0000 0.0000 -0.0000 -0.0000 4.0157 7.4189 -30.0784 12.2416 0.0000 0.0000 -10.5190 -7.2694 -0.2254 1.7312 0.0000 0.0000 5.4691 -4.7695 11.9900 10.3082 0.0000 0.0000 -9.2314 13.7900 8.3935 -5.8078 0.0000 -0.0000
 2.8206 -15.8286 37.9289 4.7699 0.3634 -179.8909 1.5020 -0.3634 -0.4180 0.7795 -0.1956 -0.1166 -0.6056 -1.5328 -0.1740 -0.5587 0.3021 0.1784 0.8233 -1.3914 -0.8791 -0.3923 1.5526 0.3806 -3.0272 5.6726 1.2185 -1.5051 6.0139 -0.2216 0.0000 0.0000 9.6445 -2.4076 16.2395 -3.0884 0.0000 -0.0000 0.0000 -0.0000 -0.0000 -0.0000 -3.5637 -3.3617 -2.0828 -14.1473 5.2785 6.2861 -0.0000 -0.0000 -13.9473 -9.2786 -13.8998 5.4364 -0.0000 -0.0000 -0.0000 -0.0000 -0.0000 0.0000 3.8386 7.4379 -29.7978 12.4762 0.0000 0.0000 -10.6580 -7.1998 -0.4285 1.7197 0.0000 0.0000 5.3735 -4.7755 12.0043 10.4160 0.0000 0.0000 -9.3300 13.7054 8.5348 -5.7411 0.0000 -0.0000
 2.8272 -15.8434 37.9246 4.7995 0.3874 -179.8318 1.6024 -0.3465 -0.4239 0.7946 -0.1946 -0.1153 -0.4783 -1.4598 -0.1554 -0.5426 0.3224 0.1698 0.7859 -1.4217 -0.9107 -0.3449 1.4657 0.3310 -2.9912 5.7399 1.1792 -1.5305 5.8532 -0.1924 0.0000 0.0000 9.5576 -2.4972 15.9978 -3.1733 0.0000 0.0000 0.0000 -0.0000 -0.0000 0.0000 -3.5673 -3.4527 -1.9573 -14.0500 5.3251 6.1403 -0.0000 -0.0000 -13.9584 -9.3470 -14.1648 5.2020 0.0000 0.0000 -0.0000 -0.0000 -0.0000 0.0000 3.7650 7.4640 -29.5901 12.6596 0.0000 0.0000 -10.7780 -7.1213 -0.6903 1.6976 0.0000 0.0000 5.3132 -4.7621 11.9145 10.5259 0.0000 0.0000 -9.4025 13.6239 8.6328 -5.6964 0.0000 -0.0000
 2.8217 -15.8550 37.9226 4.7972 0.4224 -179.7048 1.6439 -0.3437 -0.4278 0.7898 -0.1973 -0.1167 -0.3491 -1.3781 -0.1731 -0.5129 0.3494 0.1477 0.8387 -1.3976 -0.9370 -0.3226 1.3359 0.2514 -2.9103 5.8282 1.1275 -1.5045 5.6542 -0.1597 0.0000 0.0000 9.4371 -2.5739 15.6238 -3.3117 0.0000 -0.0000 -0.0000 0.0000 -0.0000 0.0000 -3.5228 -3.5380 -1.8846 -13.9875 5.3805 6.0505 -0.0000 -0.0000 -13.9521 -9.3729 -14.4351 5.0723 -0.0000 -0.0000 0.0000 0.0000 -0.0000 0.0000 3.7299 7.4944 -29.5032 12.7287 0.0000 0.0000 -10.8353 -7.0764 -0.8952 1.6874 0.0000 0.0000 5.2317 -4.7381 11.8695 10.6007 0.0000 0.0000 -9.4070 13.5963 8.5780 -5.6747 0.0000 -0.0000
 2.8059 -15.8645 37.9220 4.7309 0.4395 -179.5738 1.6114 -0.3647 -0.4269 0.7651 -0.2010 -0.1188 -0.2424 -1.3219 -0.1950 -0.4810 0.3718 0.1268 0.9637 -1.3407 -0.9412 -0.2940 1.2297 0.1794 -2.8326 5.9119 1.0919 -1.4646 5.4890 -0.1304 0.0000 0.0000 9.3166 -2.6011 15.3190 -3.5564 0.0000 -0.0000 0.0000 -0.0000 -0.0000 0.0000 -3.4772 -3.5756 -1.8207 -13.9280 5.4344 5.9841 -0.0000 -0.0000 -13.9641 -9.2943 -14.7221 5.0366 -0.0000 -0.0000 0.0000 -0.0000 0.0000 0.0000 3.6800 7.5037 -29.4712 12.6957 0.0000 0.0000 -10.8344 -7.0535 -1.0480 1.7011 0.0000 0.0000 5.1014 -4.7246 11.8837 10.6518 0.0000 0.0000 -9.3853 13.5961 8.4294 -5.6661 0.0000 -0.0000
 2.7832 -15.8731 37.9222 4.6400 0.4376 -179.4716 1.5635 -0.3882 -0.4247 0.7417 -0.2055 -0.1189 -0.1845 -1.3046 -0.2058 -0.4612 0.3820 0.1176 1.0975 -1.2944 -0.9335 -0.2162 1.1773 0.1422 -2.8208 5.9535 1.0762 -1.4398 5.4258 -0.1051 0.0000 0.0000 9.2594 -2.5817 15.2512 -3.7692 0.0000 0.0000 0.0000 -0.0000 0.0000 -0.0000 -3.4855 -3.5579 -1.7349 -13.8406 5.4697 5.9108 -0.0000 -0.0000 -14.0280 -9.1612 -14.9927 4.9995 -0.0000 0.0000 -0.0000 0.0000 0.0000 0.0000 3.6203 7.5045 -29.4792 12.6268 0.0000 0.0000 -10.8016 -7.0435 -1.1366 1.7273 0.0000 0.0000 4.9675 -4.7105 11.8748 10.6775 0.0000 0.0000 -9.3835 13.5769 8.3255 -5.6573 0.0000 -0.0000
 2.7563 -15.8813 37.9222 4.5693 0.4400 -179.4022 1.5454 -0.3966 -0.4203 0.7293 -0.2097 -0.1195 -0.1683 -1.3037 -0.1936 -0.4511 0.3838 0.1223 1.2084 -1.2748 -0.9346 -0.1081 1.1527 0.1371 -2.8671 5.9455 1.0549 -1.4458 5.4543 -0.0786 0.0000 0.0000 9.2894 -2.5706 15.3190 -3.7896 0.0000 0.0000 0.0000 -0.0000 -0.0000 0.0000 -3.5152 -3.5199 -1.6521 -13.7483 5.4880 5.8601 -0.0000 -0.0000 -14.1438 -9.0574 -15.1309 4.9245 0.0000 -0.0000 0.0000 -0.0000 -0.0000 0.0000 3.5716 7.5322 -29.5464 12.5784 0.0000 0.0000 -10.7655 -7.0466 -1.1393 1.7549 0.0000 0.0000 4.8839 -4.6677 11.8102 10.6561 0.0000 0.0000 -9.3988 13.5318 8.3151 -5.6376 0.0000 -0.0000
